<svg id="Layer_1" data-name="Layer 1" xmlns="http://www.w3.org/2000/svg" viewBox="0 0 141.6 61.2"><defs><style>.cls-1{fill-rule:evenodd;}</style></defs><title>Rhein_Architects_Krive_2</title><path d="M362.4,449.64h1.08a.61.61,0,0,0,.48.6,3.12,3.12,0,0,0,2.4,0,.68.68,0,0,0,0-1.2,3.73,3.73,0,0,0-1.32-.12,3.88,3.88,0,0,1-1.92-.36c-.48-.24-.6-.72-.6-1.32s.12-1.08.6-1.32a3.21,3.21,0,0,1,2-.48,3.32,3.32,0,0,1,1.08.12,5.85,5.85,0,0,1,.84.36,2.11,2.11,0,0,1,.48.6,1,1,0,0,1,.24.84h-1.2a.55.55,0,0,0-.36-.6c-.24-.24-.6-.24-1.08-.24-1.08,0-1.56.24-1.56.72,0,.24.12.36.36.48a3.34,3.34,0,0,0,1.2.12,3.61,3.61,0,0,1,2.16.48,1.55,1.55,0,0,1,.6,1.32,1.38,1.38,0,0,1-.72,1.32,3.43,3.43,0,0,1-2,.48,3.7,3.7,0,0,1-1.2-.12,5.85,5.85,0,0,1-.84-.36,1.45,1.45,0,0,1-.6-.6A1.52,1.52,0,0,1,362.4,449.64Zm-9.84-4.08h5.88v1.08H356v4.68H355v-4.68h-2.4Zm-6.84,5.88a2.58,2.58,0,0,1-1.32-.24,4.21,4.21,0,0,1-1-.6,6.7,6.7,0,0,1-.6-1,3.55,3.55,0,0,1-.24-1.2,4.26,4.26,0,0,1,.24-1.2,6.7,6.7,0,0,1,.6-1,4.21,4.21,0,0,1,1-.6,5.1,5.1,0,0,1,1.32-.24,3.5,3.5,0,0,1,1.08.24,3,3,0,0,1,.84.48l.72.72a3.5,3.5,0,0,1,.24,1.08h-1.2a3.15,3.15,0,0,0-.6-1.08,1.94,1.94,0,0,0-1.08-.36c-.36,0-.6.12-.84.12s-.36.24-.48.48a.66.66,0,0,0-.36.6,1.52,1.52,0,0,0-.12.72,1.78,1.78,0,0,0,.12.84c0,.24.12.36.36.6s.36.24.48.36a1.78,1.78,0,0,0,.84.12,1.94,1.94,0,0,0,1.08-.36,2.61,2.61,0,0,0,.6-1h1.2a2.82,2.82,0,0,1-.24,1,5.22,5.22,0,0,1-.72.84c-.24.12-.6.36-.84.48A3.32,3.32,0,0,1,345.72,451.44Zm-13-5.88h5.76v1.08H334V448h3.36V449H334v1.32h4.56v1h-5.76Zm-10.08,0h5.88v1.08h-2.4v4.68h-1.08v-4.68h-2.4Zm-4.2,0v5.76h-1.2v-5.76Zm-10.44,0V448h3.48v-2.4h1.2v5.76h-1.2V449H308v2.28h-1.2v-5.76Zm-8.52,5.88a2.16,2.16,0,0,1-1.2-.24,2.52,2.52,0,0,1-1.56-1.56,3.55,3.55,0,0,1-.24-1.2,4.26,4.26,0,0,1,.24-1.2,2.52,2.52,0,0,1,1.56-1.56,4.26,4.26,0,0,1,1.2-.24,2.87,2.87,0,0,1,1.08.24,2.41,2.41,0,0,1,1,.48,3.18,3.18,0,0,1,.6.72,1.94,1.94,0,0,1,.36,1.08h-1.2a3.15,3.15,0,0,0-.6-1.08,2,2,0,0,0-1.2-.36c-.24,0-.48.12-.72.12a2.11,2.11,0,0,0-.6.48,2.62,2.62,0,0,0-.36.6c0,.24-.12.48-.12.72s.12.6.12.84.24.36.36.6.36.24.6.36a1.52,1.52,0,0,0,.72.12,2,2,0,0,0,1.2-.36,2.61,2.61,0,0,0,.6-1h1.2a1.6,1.6,0,0,1-.36,1,2.15,2.15,0,0,1-.6.84,7.13,7.13,0,0,1-1,.48A3,3,0,0,1,299.52,451.44Zm-8.88-4.8h-3V448h3c.24,0,.36-.12.48-.12a.72.72,0,0,0,.12-.48v-.12c0-.24,0-.36-.12-.48S290.88,446.64,290.64,446.64Zm.24,2.28c.12.12.12.24.24.36l1.32,2h-1.32L289.56,449h-1.92v2.28h-1.2v-5.76h4.2A1.64,1.64,0,0,1,292,446a2.18,2.18,0,0,1,.48,1.32,1.3,1.3,0,0,1-.48,1.08A1.17,1.17,0,0,1,290.88,448.92Zm-11.76-2.28H279l-1,2.52h2.16Zm2,4.68-.48-1.08h-3.12l-.48,1.08h-1.2l2.4-5.76H280l2.4,5.76Zm-17-5.76,3.6,4v-4h1.08v5.76h-1l-3.6-4v4H263v-5.76Zm-5.76,0v5.76h-1.2v-5.76Zm-11.28,0h5.64v1.08h-4.44V448h3.36V449h-3.36v1.32h4.44v1h-5.64Zm-9.36,0V448h3.48v-2.4h1.2v5.76h-1.2V449h-3.48v2.28h-1.08v-5.76Zm-7.32,1.08h-3V448h3c.24,0,.36-.12.48-.12a.72.72,0,0,0,.12-.48v-.12c0-.24,0-.36-.12-.48S230.64,446.64,230.4,446.64Zm.24,2.28c.12.12.24.24.24.36l1.32,2h-1.32L229.44,449h-2v2.28h-1.08v-5.76h4.08a1.66,1.66,0,0,1,1.8,1.8,1.68,1.68,0,0,1-.36,1.08A1.54,1.54,0,0,1,230.64,448.92Z" transform="translate(-226.32 -390.24)"/><polygon points="45.36 19.32 73.56 19.32 73.56 0 83.04 0 83.04 47.16 73.56 47.16 73.56 27.84 45.36 27.84 45.36 19.32"/><path class="cls-1" d="M253.68,418a20.8,20.8,0,0,1,1.8,2.28L266,437.4H255.48l-12-19.32-5.28-8.52h13.68a4.56,4.56,0,0,0,3.48-1.2,5,5,0,0,0,1.32-3.48v-1.44a4.8,4.8,0,0,0-1.32-3.48,4.56,4.56,0,0,0-3.48-1.2H231.6l-5.28-8.52h25.56c4.32,0,7.8,1.32,10.32,3.84s3.84,6,3.84,10.32A12.92,12.92,0,0,1,253.68,418Z" transform="translate(-226.32 -390.24)"/><polygon points="131.28 47.16 127.44 37.8 127.32 37.8 116.16 10.32 113.76 10.32 102.48 37.8 98.64 47.16 88.68 47.16 108 0 122.16 0 141.48 47.16 131.28 47.16"/></svg>